<mxfile host="app.diagrams.net" agent="Mozilla/5.0 (Windows NT 10.0; Win64; x64) AppleWebKit/537.36 (KHTML, like Gecko) Chrome/134.0.0.0 Safari/537.36" version="26.1.1">
  <diagram name="Página-1" id="FGPbX-J70ndn0o5nlKX5">
    <mxGraphModel dx="1434" dy="746" grid="1" gridSize="10" guides="1" tooltips="1" connect="1" arrows="1" fold="1" page="1" pageScale="1" pageWidth="827" pageHeight="1169" math="0" shadow="0">
      <root>
        <mxCell id="0" />
        <mxCell id="1" parent="0" />
        <mxCell id="UyFx9gftwWiL1bnKYE7C-5" value="" style="edgeStyle=orthogonalEdgeStyle;rounded=0;orthogonalLoop=1;jettySize=auto;html=1;" edge="1" parent="1" source="UyFx9gftwWiL1bnKYE7C-1" target="UyFx9gftwWiL1bnKYE7C-4">
          <mxGeometry relative="1" as="geometry" />
        </mxCell>
        <mxCell id="UyFx9gftwWiL1bnKYE7C-13" value="Acessa App" style="edgeLabel;html=1;align=center;verticalAlign=middle;resizable=0;points=[];" vertex="1" connectable="0" parent="UyFx9gftwWiL1bnKYE7C-5">
          <mxGeometry x="-0.113" y="1" relative="1" as="geometry">
            <mxPoint as="offset" />
          </mxGeometry>
        </mxCell>
        <mxCell id="UyFx9gftwWiL1bnKYE7C-1" value="Resource Owner" style="shape=umlActor;verticalLabelPosition=bottom;verticalAlign=top;html=1;outlineConnect=0;" vertex="1" parent="1">
          <mxGeometry x="80" y="260" width="30" height="60" as="geometry" />
        </mxCell>
        <mxCell id="UyFx9gftwWiL1bnKYE7C-4" value="Client" style="whiteSpace=wrap;html=1;verticalAlign=top;fillColor=#00994D;" vertex="1" parent="1">
          <mxGeometry x="255" y="200" width="120" height="60" as="geometry" />
        </mxCell>
        <mxCell id="UyFx9gftwWiL1bnKYE7C-6" value="Authorization Server" style="whiteSpace=wrap;html=1;verticalAlign=top;fillColor=#CC0000;" vertex="1" parent="1">
          <mxGeometry x="455" y="200" width="120" height="60" as="geometry" />
        </mxCell>
        <mxCell id="UyFx9gftwWiL1bnKYE7C-8" value="Resource Server" style="whiteSpace=wrap;html=1;verticalAlign=top;fillColor=#7CCAFF;" vertex="1" parent="1">
          <mxGeometry x="655" y="200" width="120" height="60" as="geometry" />
        </mxCell>
        <mxCell id="UyFx9gftwWiL1bnKYE7C-10" value="" style="endArrow=none;html=1;rounded=0;entryX=0.5;entryY=1;entryDx=0;entryDy=0;" edge="1" parent="1" target="UyFx9gftwWiL1bnKYE7C-4">
          <mxGeometry width="50" height="50" relative="1" as="geometry">
            <mxPoint x="315" y="860" as="sourcePoint" />
            <mxPoint x="340" y="380" as="targetPoint" />
          </mxGeometry>
        </mxCell>
        <mxCell id="UyFx9gftwWiL1bnKYE7C-11" value="" style="endArrow=none;html=1;rounded=0;entryX=0.5;entryY=1;entryDx=0;entryDy=0;" edge="1" parent="1">
          <mxGeometry width="50" height="50" relative="1" as="geometry">
            <mxPoint x="515" y="860" as="sourcePoint" />
            <mxPoint x="514.5" y="260" as="targetPoint" />
          </mxGeometry>
        </mxCell>
        <mxCell id="UyFx9gftwWiL1bnKYE7C-12" value="" style="endArrow=none;html=1;rounded=0;entryX=0.5;entryY=1;entryDx=0;entryDy=0;" edge="1" parent="1">
          <mxGeometry width="50" height="50" relative="1" as="geometry">
            <mxPoint x="720" y="850" as="sourcePoint" />
            <mxPoint x="720" y="260" as="targetPoint" />
          </mxGeometry>
        </mxCell>
        <mxCell id="UyFx9gftwWiL1bnKYE7C-14" value="" style="endArrow=classic;html=1;rounded=0;exitX=-0.017;exitY=0.8;exitDx=0;exitDy=0;exitPerimeter=0;" edge="1" parent="1" source="UyFx9gftwWiL1bnKYE7C-15">
          <mxGeometry width="50" height="50" relative="1" as="geometry">
            <mxPoint x="310" y="320" as="sourcePoint" />
            <mxPoint x="510" y="320" as="targetPoint" />
          </mxGeometry>
        </mxCell>
        <mxCell id="UyFx9gftwWiL1bnKYE7C-15" value="Solicita autorização (redirect)" style="text;html=1;align=center;verticalAlign=middle;resizable=0;points=[];autosize=1;strokeColor=none;fillColor=none;" vertex="1" parent="1">
          <mxGeometry x="320" y="298" width="180" height="30" as="geometry" />
        </mxCell>
        <mxCell id="UyFx9gftwWiL1bnKYE7C-16" value="" style="endArrow=classic;html=1;rounded=0;" edge="1" parent="1">
          <mxGeometry width="50" height="50" relative="1" as="geometry">
            <mxPoint x="130" y="360" as="sourcePoint" />
            <mxPoint x="510" y="360" as="targetPoint" />
          </mxGeometry>
        </mxCell>
        <mxCell id="UyFx9gftwWiL1bnKYE7C-17" value="Autentica e autoriza client" style="text;html=1;align=center;verticalAlign=middle;whiteSpace=wrap;rounded=0;" vertex="1" parent="1">
          <mxGeometry x="130" y="330" width="160" height="30" as="geometry" />
        </mxCell>
        <mxCell id="UyFx9gftwWiL1bnKYE7C-18" value="" style="endArrow=classic;html=1;rounded=0;" edge="1" parent="1">
          <mxGeometry width="50" height="50" relative="1" as="geometry">
            <mxPoint x="510" y="420" as="sourcePoint" />
            <mxPoint x="320" y="420" as="targetPoint" />
          </mxGeometry>
        </mxCell>
        <mxCell id="UyFx9gftwWiL1bnKYE7C-19" value="Gera código de autorização (redirect)" style="text;html=1;align=center;verticalAlign=middle;whiteSpace=wrap;rounded=0;" vertex="1" parent="1">
          <mxGeometry x="350" y="390" width="150" height="30" as="geometry" />
        </mxCell>
        <mxCell id="UyFx9gftwWiL1bnKYE7C-20" value="" style="endArrow=classic;html=1;rounded=0;" edge="1" parent="1">
          <mxGeometry width="50" height="50" relative="1" as="geometry">
            <mxPoint x="320" y="480" as="sourcePoint" />
            <mxPoint x="510" y="480" as="targetPoint" />
          </mxGeometry>
        </mxCell>
        <mxCell id="UyFx9gftwWiL1bnKYE7C-21" value="Solicita access token" style="text;html=1;align=center;verticalAlign=middle;whiteSpace=wrap;rounded=0;" vertex="1" parent="1">
          <mxGeometry x="339" y="450" width="150" height="30" as="geometry" />
        </mxCell>
        <mxCell id="UyFx9gftwWiL1bnKYE7C-22" value="" style="endArrow=classic;html=1;rounded=0;" edge="1" parent="1">
          <mxGeometry width="50" height="50" relative="1" as="geometry">
            <mxPoint x="510" y="550" as="sourcePoint" />
            <mxPoint x="320" y="550" as="targetPoint" />
          </mxGeometry>
        </mxCell>
        <mxCell id="UyFx9gftwWiL1bnKYE7C-23" value="Retorna access token" style="text;html=1;align=center;verticalAlign=middle;whiteSpace=wrap;rounded=0;" vertex="1" parent="1">
          <mxGeometry x="339" y="520" width="150" height="30" as="geometry" />
        </mxCell>
        <mxCell id="UyFx9gftwWiL1bnKYE7C-25" value="" style="endArrow=classic;html=1;rounded=0;" edge="1" parent="1">
          <mxGeometry width="50" height="50" relative="1" as="geometry">
            <mxPoint x="320" y="600" as="sourcePoint" />
            <mxPoint x="720" y="600" as="targetPoint" />
          </mxGeometry>
        </mxCell>
        <mxCell id="UyFx9gftwWiL1bnKYE7C-26" value="Faz requisição em recurso da API usando access token" style="text;html=1;align=center;verticalAlign=middle;whiteSpace=wrap;rounded=0;" vertex="1" parent="1">
          <mxGeometry x="330" y="570" width="330" height="30" as="geometry" />
        </mxCell>
        <mxCell id="UyFx9gftwWiL1bnKYE7C-27" value="" style="endArrow=classic;html=1;rounded=0;" edge="1" parent="1">
          <mxGeometry width="50" height="50" relative="1" as="geometry">
            <mxPoint x="720" y="670" as="sourcePoint" />
            <mxPoint x="520" y="670" as="targetPoint" />
          </mxGeometry>
        </mxCell>
        <mxCell id="UyFx9gftwWiL1bnKYE7C-28" value="Consulta access token" style="text;html=1;align=center;verticalAlign=middle;whiteSpace=wrap;rounded=0;" vertex="1" parent="1">
          <mxGeometry x="530" y="640" width="150" height="30" as="geometry" />
        </mxCell>
        <mxCell id="UyFx9gftwWiL1bnKYE7C-29" value="" style="endArrow=classic;html=1;rounded=0;" edge="1" parent="1">
          <mxGeometry width="50" height="50" relative="1" as="geometry">
            <mxPoint x="520" y="720" as="sourcePoint" />
            <mxPoint x="710" y="720" as="targetPoint" />
          </mxGeometry>
        </mxCell>
        <mxCell id="UyFx9gftwWiL1bnKYE7C-30" value="Access token valido" style="text;html=1;align=center;verticalAlign=middle;whiteSpace=wrap;rounded=0;" vertex="1" parent="1">
          <mxGeometry x="539" y="690" width="150" height="30" as="geometry" />
        </mxCell>
        <mxCell id="UyFx9gftwWiL1bnKYE7C-31" value="" style="endArrow=classic;html=1;rounded=0;" edge="1" parent="1">
          <mxGeometry width="50" height="50" relative="1" as="geometry">
            <mxPoint x="720" y="770" as="sourcePoint" />
            <mxPoint x="320" y="770" as="targetPoint" />
          </mxGeometry>
        </mxCell>
        <mxCell id="UyFx9gftwWiL1bnKYE7C-32" value="Retorna recurso solicitado" style="text;html=1;align=center;verticalAlign=middle;whiteSpace=wrap;rounded=0;" vertex="1" parent="1">
          <mxGeometry x="530" y="740" width="150" height="30" as="geometry" />
        </mxCell>
        <mxCell id="UyFx9gftwWiL1bnKYE7C-33" value="" style="endArrow=classic;html=1;rounded=0;" edge="1" parent="1">
          <mxGeometry width="50" height="50" relative="1" as="geometry">
            <mxPoint x="310" y="820" as="sourcePoint" />
            <mxPoint x="130" y="820" as="targetPoint" />
          </mxGeometry>
        </mxCell>
        <mxCell id="UyFx9gftwWiL1bnKYE7C-34" value="Usa recurso e mostra alguma coisa" style="text;html=1;align=center;verticalAlign=middle;whiteSpace=wrap;rounded=0;" vertex="1" parent="1">
          <mxGeometry x="120" y="780" width="150" height="30" as="geometry" />
        </mxCell>
      </root>
    </mxGraphModel>
  </diagram>
</mxfile>
